<svg width="1000" height="890" viewBox="0 0 1000 890" fill="none" xmlns="http://www.w3.org/2000/svg">
<path d="M995.37 875.605H888.889L887.346 872.519L933.642 826.223C936.728 823.136 936.728 818.507 933.642 815.42C930.556 812.334 925.926 812.334 922.84 815.42L879.63 858.63L510.803 144.124L578.704 11.4079C580.247 8.32146 578.704 3.69183 575.617 0.605409C572.531 -0.937801 567.901 0.605409 564.815 3.69183L501.543 125.605L438.272 3.69183C436.728 0.605409 432.099 -0.937801 427.469 0.605409C424.383 2.14862 422.839 6.77825 424.383 11.4079L492.284 144.124L245.37 624.062C243.827 627.149 245.37 631.778 248.457 634.865C250 634.865 251.543 636.408 251.543 636.408C254.63 636.408 257.716 634.865 257.716 631.778L498.457 162.642L867.284 878.692H672.84C674.383 877.149 674.383 874.062 672.84 870.976L504.63 543.815C504.63 543.815 504.63 542.272 503.087 542.272C503.087 542.272 503.086 542.272 501.543 542.272H500C500 542.272 500 542.272 498.457 542.272H496.914C496.914 542.272 496.914 542.272 495.37 542.272C495.37 542.272 493.827 542.272 493.827 543.815C492.284 545.358 492.284 545.358 490.741 546.902L328.704 866.346C327.161 869.432 327.161 872.519 330.247 874.062H134.259L199.074 747.519C200.617 744.433 199.074 739.803 195.988 736.716C192.901 735.173 188.272 736.716 185.185 739.803L125 857.087L80.247 812.334C77.1606 809.247 72.5309 809.247 69.4444 812.334C66.358 815.42 66.358 820.05 69.4444 823.136L117.284 870.976L115.741 872.519H7.71605C3.08642 872.519 0 875.605 0 880.235C0 884.865 3.08642 887.951 7.71605 887.951H115.741C117.284 887.951 118.827 889.494 118.827 889.494C120.37 889.494 121.914 889.494 121.914 887.951H879.63C881.173 887.951 882.716 889.494 882.716 889.494C884.259 889.494 885.803 889.494 885.803 887.951H992.284C996.914 887.951 1000 884.865 1000 880.235C1000 875.605 1000 875.605 995.37 875.605ZM666.667 875.605H512.346V574.679L666.667 875.605C666.667 874.062 665.124 874.062 666.667 875.605ZM342.593 874.062L496.914 574.679V874.062H342.593C341.049 874.062 341.049 874.062 342.593 874.062Z" fill="white"/>
<path d="M206.79 718.198C208.333 718.198 209.877 719.741 209.877 719.741C212.963 719.741 216.049 718.198 216.049 715.112L243.827 662.643C245.371 659.556 243.827 654.927 240.741 651.84C237.655 650.297 233.025 651.84 229.938 654.927L202.161 707.396C200.617 712.025 202.161 716.655 206.79 718.198Z" fill="white"/>
</svg>
