<svg width="1000" height="1166" viewBox="0 0 1000 1166" fill="none" xmlns="http://www.w3.org/2000/svg">
<path d="M967.053 1020.78C978.168 1015.22 985.579 1005.96 991.136 994.841C998.547 978.168 1002.25 957.789 998.547 937.411C991.136 894.801 957.79 863.307 924.443 870.718L791.056 892.949C833.666 841.076 861.455 774.383 870.718 698.427C883.686 574.303 824.403 442.769 722.511 372.371C707.69 363.108 692.869 353.845 678.048 344.582C661.375 335.319 644.702 324.203 628.029 313.088C603.945 296.414 574.303 266.773 566.893 229.721C557.63 187.112 578.009 146.355 600.24 101.893C615.06 74.1036 628.028 44.4621 635.439 14.8206L639.144 0L624.323 3.70513C559.483 22.231 492.789 42.6096 429.801 74.1036C359.403 109.303 305.678 153.765 270.478 207.49C222.311 279.741 203.785 379.781 222.311 479.821C235.279 552.072 264.921 629.881 314.941 711.395C211.196 663.227 175.996 622.47 164.881 596.534L153.765 570.598L146.355 598.387C120.419 705.837 192.67 820.698 272.331 900.359L87.072 867.013C53.7253 861.455 20.3787 891.096 12.9683 933.706C9.26315 954.084 11.1157 974.463 20.3787 991.136C25.9365 1004.1 35.1994 1011.51 44.4624 1017.07C20.3787 1030.04 7.41056 1063.39 12.9683 1098.59C20.3787 1135.64 46.315 1161.57 74.1038 1163.43V1165.28H77.809C81.5142 1165.28 83.3668 1165.28 87.072 1165.28C88.9245 1165.28 90.7771 1163.43 92.6297 1163.43L505.757 1096.73L918.885 1163.43C920.738 1163.43 922.59 1165.28 924.443 1165.28C928.148 1165.28 930.001 1165.28 933.706 1165.28H937.411V1163.43C967.053 1161.57 992.989 1133.79 998.547 1098.59C1004.1 1068.95 991.136 1035.6 967.053 1020.78ZM926.296 887.391C948.527 883.686 972.61 907.77 980.021 941.116C983.726 957.79 981.873 974.463 974.463 987.431C968.905 1000.4 959.642 1007.81 948.527 1009.66L503.905 1081.91H502.052L122.271 1143.05C124.124 1141.2 125.976 1139.34 125.976 1135.64C135.239 1118.96 137.092 1098.59 133.387 1078.21C129.682 1057.83 120.419 1041.16 105.598 1028.19C103.745 1026.34 101.893 1026.34 101.893 1024.48L376.076 978.168C418.686 998.547 465 1009.66 511.315 1011.51C516.873 1011.51 522.431 1013.37 527.989 1013.37C535.399 1013.37 540.957 1013.37 548.367 1011.51C589.124 1007.81 629.881 998.546 668.785 980.02C707.69 965.2 741.036 941.116 770.678 911.475L926.296 887.391ZM490.937 991.136C448.327 974.463 413.128 946.674 392.749 913.327C379.781 891.096 372.371 863.307 370.518 833.666C368.666 805.877 385.339 779.941 400.16 763.267C411.275 750.299 427.949 741.036 444.622 731.773C450.18 728.068 457.59 724.363 463.148 720.658C503.905 694.721 537.252 657.67 555.777 613.208C561.335 600.239 568.746 579.861 563.188 561.335C557.63 539.104 539.104 526.136 522.431 513.168C518.726 509.462 513.168 507.61 509.463 503.905C583.566 518.725 650.26 566.893 685.459 633.586C724.363 707.69 722.511 802.172 681.754 876.276C644.702 941.116 605.797 987.431 546.514 994.841C537.252 994.841 526.136 994.841 516.873 994.841C507.61 994.841 500.2 992.989 490.937 991.136ZM157.47 628.028C185.259 666.933 242.69 703.985 329.761 741.036L357.55 752.152L340.877 728.068C283.447 637.291 248.247 555.777 235.279 477.968C218.606 381.634 235.279 287.152 281.594 218.606C314.941 168.586 366.813 125.976 433.506 90.7768C489.084 62.988 550.22 44.4621 609.503 25.9362C602.092 48.1673 590.977 72.251 579.861 92.6295C557.63 137.092 535.399 181.554 544.662 231.574C552.072 264.921 576.156 298.267 613.208 326.056C629.881 337.172 648.407 348.287 665.08 357.55C679.901 366.813 694.722 374.223 709.542 385.339C807.73 452.032 863.308 576.156 850.339 694.722C841.076 774.383 809.582 844.782 761.415 894.801H757.71V896.654C729.921 924.443 698.427 946.674 661.375 961.495C650.26 967.052 637.291 972.61 626.176 976.315C655.817 952.232 679.901 917.032 700.28 881.833C744.742 804.024 746.594 702.132 703.985 622.471C661.375 542.809 578.008 487.231 487.232 479.821L468.706 477.968L479.821 492.789C489.084 505.757 502.052 515.02 515.02 524.283C529.841 535.399 544.662 544.662 548.367 561.335C550.22 572.451 548.367 583.566 540.957 602.092C522.431 642.849 492.789 678.048 453.885 702.132C448.327 705.837 440.917 709.542 435.359 713.248C418.686 722.51 400.16 733.626 387.192 750.299C370.518 770.678 350.14 800.319 351.992 833.666C353.845 865.16 363.108 894.801 376.076 920.738C389.044 944.821 409.423 965.2 433.506 981.873C394.602 970.758 355.698 952.232 324.204 924.443C231.574 852.192 148.207 733.626 157.47 628.028ZM35.1994 987.431C29.6416 974.463 27.7891 957.79 29.6416 941.116C35.1994 907.77 59.2831 883.686 83.3668 887.391L294.562 924.443C300.12 930.001 307.53 935.558 313.088 939.264C326.056 948.527 339.024 957.789 351.992 965.2L83.3668 1011.51L61.1357 1007.81C50.0201 1005.96 40.7572 998.547 35.1994 987.431ZM29.6416 1100.44C24.0839 1068.94 38.9046 1037.45 62.9883 1033.75C64.8409 1033.75 66.6935 1033.75 68.5461 1033.75C77.809 1033.75 87.072 1037.45 96.3349 1044.86C107.45 1054.12 114.861 1068.94 118.566 1085.62C122.271 1102.29 120.419 1117.11 113.008 1130.08C107.45 1141.2 100.04 1146.75 90.7771 1150.46L79.6616 1152.31C55.5779 1150.46 35.1994 1130.08 29.6416 1100.44ZM896.654 1035.6C885.539 1046.71 878.128 1063.39 874.423 1080.06C870.718 1100.44 872.57 1120.82 881.833 1137.49C883.686 1139.34 885.539 1141.2 885.539 1144.9L559.483 1091.18L896.654 1035.6ZM980.021 1100.44C974.463 1130.08 954.084 1150.46 931.853 1152.31L920.738 1150.46C911.475 1146.75 904.065 1141.2 898.507 1130.08C891.096 1117.11 889.244 1100.44 892.949 1085.62C896.654 1068.94 904.065 1055.98 915.18 1044.86C924.443 1037.45 933.706 1033.75 942.969 1033.75C944.822 1033.75 946.674 1033.75 948.527 1033.75C970.758 1037.45 985.579 1067.09 980.021 1100.44Z" fill="white"/>
<path d="M57.4307 396.455H38.9048V435.359H57.4307V396.455Z" fill="white"/>
<path d="M38.9046 435.359H0.000244141V453.885H38.9046V435.359Z" fill="white"/>
<path d="M96.3351 435.359H57.4307V453.885H96.3351V435.359Z" fill="white"/>
<path d="M57.4307 453.884H38.9048V492.789H57.4307V453.884Z" fill="white"/>
<path d="M822.535 85.2192H804.009V124.124H822.535V85.2192Z" fill="white"/>
<path d="M804.009 124.124H765.105V142.649H804.009V124.124Z" fill="white"/>
<path d="M861.44 124.124H822.535V142.649H861.44V124.124Z" fill="white"/>
<path d="M822.535 142.649H804.009V181.553H822.535V142.649Z" fill="white"/>
</svg>
