<svg width="1000" height="1064" viewBox="0 0 1000 1064" fill="none" xmlns="http://www.w3.org/2000/svg">
<path d="M690.069 731.164H309.932C291.096 731.164 277.397 746.575 277.397 763.698V842.466C277.397 861.301 292.808 875 309.932 875H690.069C708.904 875 722.603 859.589 722.603 842.466V763.698C722.603 744.863 707.192 731.164 690.069 731.164ZM705.48 842.466C705.48 851.027 698.63 857.877 690.069 857.877H309.932C301.37 857.877 294.521 851.027 294.521 842.466V763.698C294.521 755.137 301.37 748.288 309.932 748.288H690.069C698.63 748.288 705.48 755.137 705.48 763.698V842.466Z" fill="white"/>
<path d="M640.411 773.973H357.877C352.74 773.973 349.315 777.397 349.315 782.534C349.315 787.671 352.74 791.096 357.877 791.096H592.466L589.041 815.068C589.041 818.493 589.041 821.918 592.466 825.343C594.178 828.767 599.315 830.48 602.74 830.48H618.15C621.575 830.48 625 828.767 628.425 825.343C630.137 821.918 631.849 818.493 631.849 815.068L628.425 791.096H640.411C645.548 791.096 648.972 787.671 648.972 782.534C648.972 779.11 643.835 773.973 640.411 773.973ZM607.877 815.068L611.301 792.808L614.726 815.068H607.877Z" fill="white"/>
<path d="M948.63 672.945H880.137L873.288 625L840.753 513.699C837.329 503.425 827.055 496.575 816.781 496.575H803.082C808.219 486.301 811.644 476.028 815.068 465.754H933.219C970.891 462.329 1000 397.26 1000 313.356C1000 227.74 969.178 159.247 929.794 159.247C928.082 159.247 928.082 159.247 926.37 159.247H782.534L806.507 78.7671C809.931 63.3562 808.219 47.9452 801.37 35.9589C794.52 22.2603 782.534 13.6986 767.123 8.56166L741.438 1.71232C726.027 -1.71234 710.616 3.87838e-05 698.63 6.84935C684.932 13.6987 676.37 25.685 671.233 41.0959L638.699 152.397C638.699 155.822 636.986 157.534 636.986 160.959H537.671C532.534 150.685 522.26 143.836 510.274 143.836H491.438C479.452 143.836 469.178 150.685 464.041 160.959H364.726C364.726 159.247 363.014 157.534 363.014 155.822L330.479 41.0959C327.055 25.685 316.781 13.6987 303.082 6.84935C289.384 3.87838e-05 273.973 -1.71234 260.274 1.71232L234.589 8.56166C203.767 17.1233 186.644 49.6575 195.206 78.7671L219.178 159.247H71.9179C61.6439 159.247 46.2329 164.384 30.822 188.356C29.1096 191.781 29.1096 196.918 34.2466 200.343C35.9589 202.055 37.6713 202.055 39.3836 202.055C42.8083 202.055 44.5206 200.342 46.233 198.63C51.3699 188.356 61.6439 178.082 73.6302 178.082H359.589C359.589 178.082 359.589 178.082 361.301 178.082C361.301 178.082 361.301 178.082 363.014 178.082H464.041V308.219H241.438C207.192 308.219 179.795 335.616 179.795 369.863V426.37C179.795 434.932 179.794 441.781 181.507 450.343H68.4931C42.8082 450.343 15.411 393.836 15.411 313.356C15.411 284.247 18.8356 256.849 25.6849 234.589C27.3973 229.452 23.9727 226.027 20.548 224.315C15.411 222.603 11.9863 226.027 10.2739 229.452C3.42463 253.425 0 282.534 0 313.356C0 398.973 30.8219 467.466 70.2055 467.466H186.644C190.069 477.74 193.493 488.014 198.63 498.288H184.932C174.658 498.288 164.384 505.137 160.959 515.411L128.425 626.712L121.575 672.945H53.0822C39.3835 672.945 29.1097 683.219 29.1097 696.918V861.301C29.1097 892.123 51.3699 919.521 80.4795 928.082L77.0548 945.206C73.6301 976.028 80.4795 1005.14 101.027 1027.4C121.575 1049.66 148.973 1063.36 181.507 1063.36H820.205C852.74 1063.36 881.849 1051.37 900.685 1027.4C919.52 1005.14 928.082 976.028 924.658 945.206L921.233 928.082C950.342 919.521 972.603 892.123 972.603 861.301V696.918C972.603 683.219 960.616 672.945 948.63 672.945ZM982.877 311.644C982.877 392.123 955.479 448.63 929.794 448.63C904.109 448.63 876.712 392.123 876.712 311.644C876.712 234.589 902.397 179.795 926.37 174.658H931.507C957.192 179.795 982.877 234.589 982.877 311.644ZM654.11 155.822L686.644 44.5205C690.068 34.2466 696.918 25.685 705.48 20.548C715.753 15.4111 726.027 13.6986 736.301 17.1233L761.986 23.9726C784.247 30.822 796.233 53.0823 789.384 73.6302L763.699 159.247H652.397C652.397 157.534 654.11 157.534 654.11 155.822ZM476.027 172.945C476.027 164.384 482.877 157.534 491.438 157.534H510.274C518.836 157.534 525.685 164.384 525.685 172.945V304.795H477.74V172.945H476.027ZM208.904 73.6302C205.48 63.3562 207.192 53.0822 212.329 42.8082C217.466 32.5343 226.027 25.685 236.301 23.9726L261.986 17.1233C272.26 13.6986 282.534 15.4111 292.808 20.548C303.082 25.685 309.932 34.2466 311.644 44.5205L344.178 155.822L345.89 159.247H234.589L208.904 73.6302ZM539.384 176.37H897.26C875 202.055 859.589 251.712 859.589 313.356C859.589 373.288 875 424.658 897.26 450.343H816.781C818.493 441.781 818.493 434.932 818.493 426.37V369.863C818.493 335.616 791.096 308.219 756.849 308.219H539.384V176.37V176.37ZM195.206 368.151C195.206 342.466 215.753 321.918 241.438 321.918H756.849C782.534 321.918 803.082 342.466 803.082 368.151V424.658C803.082 505.137 738.014 568.493 659.247 568.493H654.11V506.849C654.11 501.712 650.685 498.288 645.548 498.288C640.411 498.288 636.986 501.712 636.986 506.849V568.493H364.726V506.849C364.726 501.712 361.301 498.288 356.164 498.288C351.027 498.288 347.603 501.712 347.603 506.849V568.493H340.753C260.274 568.493 196.918 503.425 196.918 424.658V368.151H195.206ZM42.8082 863.014V698.63C42.8082 693.493 46.2329 690.069 51.3699 690.069H116.438L80.4795 912.671C58.2193 905.822 42.8082 885.274 42.8082 863.014ZM888.699 1017.12C871.575 1035.96 847.603 1046.23 820.205 1046.23H178.082C150.685 1046.23 126.712 1035.96 109.589 1017.12C94.1781 998.288 87.3288 974.315 90.7535 948.63L142.123 630.137L172.945 518.836C174.658 515.411 178.082 513.699 181.507 513.699H205.479C234.589 558.219 284.247 587.329 340.753 587.329H345.89V643.836C345.89 648.973 349.315 652.397 354.452 652.397C359.589 652.397 363.014 648.973 363.014 643.836V587.329H635.274V643.836C635.274 648.973 638.699 652.397 643.836 652.397C648.973 652.397 652.397 648.973 652.397 643.836V587.329H657.534C714.041 587.329 763.699 558.219 792.808 513.699H816.781C820.206 513.699 823.63 515.411 825.343 518.836L856.164 628.425L907.534 946.918C910.959 974.315 904.11 998.288 888.699 1017.12ZM955.479 863.014C955.479 886.986 940.068 905.822 917.808 912.671L881.849 690.069H946.918C952.055 690.069 955.479 693.493 955.479 698.63V863.014V863.014Z" fill="white"/>
</svg>
