<svg width="1000" height="1265" viewBox="0 0 1000 1265" fill="none" xmlns="http://www.w3.org/2000/svg">
<path d="M989.899 464.646C995.96 464.646 1000 460.606 1000 454.545V141.414C1000 135.354 995.96 131.313 989.899 131.313H614.141V10.101C614.141 4.0404 610.101 0 604.04 0H397.98C391.919 0 387.879 4.0404 387.879 10.101V131.313H250.505C248.485 131.313 246.465 131.313 244.445 133.333L4.04034 286.869C2.02014 288.889 0 290.909 0 294.95C0 298.99 2.02014 301.01 4.04034 303.03L244.445 462.626C246.465 464.646 248.485 464.646 250.505 464.646H385.859V565.657H10.101C4.0404 565.657 0 569.697 0 575.758V888.889C0 894.95 4.0404 898.99 10.101 898.99H385.859V1244.44H123.232C117.172 1244.44 113.131 1248.48 113.131 1254.55C113.131 1260.61 117.172 1264.65 123.232 1264.65H395.96H602.02H759.596C765.657 1264.65 769.697 1260.61 769.697 1254.55C769.697 1248.48 765.657 1244.44 759.596 1244.44H612.121V898.99H749.495C751.515 898.99 753.535 898.99 755.555 896.97L995.96 743.434C997.98 741.414 1000 739.394 1000 735.354C1000 731.313 997.98 729.293 995.96 727.273L755.555 567.677C753.535 565.657 751.515 565.657 749.495 565.657H614.141V464.646H989.899ZM406.061 20.202H434.343V82.8283C434.343 88.8889 438.384 92.9293 444.444 92.9293C450.505 92.9293 454.545 88.8889 454.545 82.8283V20.202H591.919V131.313H406.061V20.202V20.202ZM28.2827 294.95L252.525 151.515H391.919C393.939 151.515 393.94 153.535 395.96 153.535C397.98 153.535 400 153.535 400 151.515H595.96C597.98 151.515 597.98 153.535 600 153.535C602.02 153.535 604.04 153.535 604.04 151.515H979.798V444.444H254.546L28.2827 294.95ZM406.061 464.646H541.414V565.657H406.061V464.646ZM593.939 1244.44H454.545V1098.99C454.545 1092.93 450.505 1088.89 444.444 1088.89C438.384 1088.89 434.343 1092.93 434.343 1098.99V1244.44H406.061V898.99H541.414V949.495C541.414 955.556 545.455 959.596 551.515 959.596C557.576 959.596 561.616 955.556 561.616 949.495V898.99H591.919V1244.44H593.939ZM971.717 735.354L747.475 878.788H20.202V585.859H745.454L971.717 735.354ZM593.939 565.657H563.636V464.646H593.939V565.657Z" fill="white"/>
<path d="M765.657 284.849H244.445C238.384 284.849 234.344 288.889 234.344 294.95C234.344 301.01 238.384 305.051 244.445 305.051H755.556V325.253C755.556 331.313 759.596 335.354 765.657 335.354C771.717 335.354 775.758 331.313 775.758 325.253V294.95C775.758 290.909 771.717 284.849 765.657 284.849Z" fill="white"/>
<path d="M921.212 284.849H832.323C826.262 284.849 822.222 288.889 822.222 294.95C822.222 301.01 826.262 305.051 832.323 305.051H921.212C927.272 305.051 931.313 301.01 931.313 294.95C931.313 288.889 927.272 284.849 921.212 284.849Z" fill="white"/>
<path d="M234.343 743.434H755.555C761.615 743.434 765.656 739.394 765.656 733.333C765.656 727.272 761.615 723.232 755.555 723.232H234.343C228.282 723.232 224.242 727.272 224.242 733.333C224.242 739.394 228.282 743.434 234.343 743.434Z" fill="white"/>
<path d="M78.7888 743.434H167.678C173.738 743.434 177.779 739.394 177.779 733.333C177.779 727.272 173.738 723.232 167.678 723.232H78.7888C72.7281 723.232 68.6877 727.272 68.6877 733.333C68.6877 739.394 72.7281 743.434 78.7888 743.434Z" fill="white"/>
<path d="M878.788 1244.44H816.162C810.101 1244.44 806.061 1248.48 806.061 1254.55C806.061 1260.61 810.101 1264.65 816.162 1264.65H878.788C884.849 1264.65 888.889 1260.61 888.889 1254.55C888.889 1248.48 884.849 1244.44 878.788 1244.44Z" fill="white"/>
</svg>
