<svg width="1000" height="1152" viewBox="0 0 1000 1152" fill="none" xmlns="http://www.w3.org/2000/svg">
<path d="M540.584 153.135C538.739 143.91 533.204 136.53 527.669 130.995C551.654 119.925 568.259 95.9398 568.259 68.2648C568.259 29.5199 536.894 0 499.994 0C461.249 0 431.729 31.3649 431.729 68.2648C431.729 95.9398 448.334 119.925 472.319 130.995C466.784 136.53 461.249 143.91 459.404 153.135C202.95 173.43 0 389.294 0 651.283C0 928.033 225.089 1151.28 499.994 1151.28C774.898 1151.28 999.988 926.188 999.988 651.283C1001.83 389.294 798.883 173.43 540.584 153.135ZM450.179 68.2648C450.179 40.5899 472.319 18.45 499.994 18.45C527.669 18.45 549.809 40.5899 549.809 68.2648C549.809 95.9398 527.669 118.08 499.994 118.08C472.319 118.08 450.179 95.9398 450.179 68.2648ZM520.289 151.29C512.909 151.29 507.374 151.29 499.994 151.29C492.614 151.29 487.079 151.29 479.699 151.29C483.389 143.91 490.769 138.375 499.994 138.375C509.219 138.375 516.599 143.91 520.289 151.29ZM499.994 1134.67C234.314 1134.67 18.45 918.808 18.45 653.128C18.45 387.449 234.314 169.74 499.994 169.74C765.673 169.74 981.538 385.604 981.538 651.283C981.538 916.963 767.518 1134.67 499.994 1134.67Z" fill="white"/>
<path d="M499.994 199.26C249.075 199.26 46.1251 402.209 46.1251 653.128C46.1251 904.048 249.075 1107 499.994 1107C750.913 1107 953.863 904.048 953.863 653.128C953.863 402.209 750.913 199.26 499.994 199.26ZM509.219 1086.7V1031.35C509.219 1025.82 505.529 1022.13 499.994 1022.13C494.459 1022.13 490.769 1025.82 490.769 1031.35V1086.7C258.3 1083.01 70.1101 894.823 66.4201 660.508H121.77C127.305 660.508 130.995 656.818 130.995 651.283C130.995 645.748 127.305 642.058 121.77 642.058H66.4201C71.9551 409.589 260.145 221.4 492.614 215.865V271.214C492.614 276.749 496.304 280.439 501.839 280.439C507.374 280.439 511.064 276.749 511.064 271.214V215.865C743.533 221.4 931.723 409.589 935.413 642.058H880.063C874.528 642.058 870.838 645.748 870.838 651.283C870.838 656.818 874.528 660.508 880.063 660.508H935.413C931.723 894.823 743.533 1083.01 509.219 1086.7Z" fill="white"/>
<path d="M734.308 405.899L477.854 595.933C470.474 599.623 463.094 603.313 457.559 608.848C452.024 614.383 446.489 621.763 444.644 629.143L254.609 885.598C252.764 889.288 252.764 894.823 254.609 898.513C256.454 900.358 258.299 900.358 261.989 900.358C263.834 900.358 265.679 900.358 267.524 898.513L522.134 708.478C529.514 704.788 536.894 701.098 544.274 693.718C549.809 688.183 555.344 680.803 557.189 673.423L747.223 418.814C749.068 415.124 749.068 409.589 747.223 405.899C745.378 402.209 737.998 402.209 734.308 405.899ZM308.114 845.008L442.799 664.198C444.644 675.268 450.179 686.338 459.404 693.718C468.629 702.943 477.854 706.633 488.924 710.323L308.114 845.008ZM540.584 666.043L531.359 678.958L512.909 691.873C498.149 695.563 483.389 693.718 470.474 680.803C459.404 669.733 455.714 653.128 461.249 638.368L472.319 623.608L487.079 612.538C490.769 610.693 496.304 610.694 499.994 610.694C511.064 610.694 522.134 614.383 529.514 623.608C542.429 634.678 546.119 651.283 540.584 666.043ZM559.034 640.213C557.189 629.143 551.654 618.073 542.429 610.694C533.204 601.469 523.979 595.934 512.909 594.089L693.718 459.404L559.034 640.213Z" fill="white"/>
</svg>
