<svg width="1000" height="588" viewBox="0 0 1000 588" fill="none" xmlns="http://www.w3.org/2000/svg">
<path d="M992.308 570.769H956.923L764.615 241.538C823.077 232.308 867.692 181.538 867.692 121.538C867.692 53.8461 813.846 0 746.154 0C678.462 0 624.615 53.8461 624.615 121.538C624.615 143.077 630.769 164.615 641.538 184.615L547.692 344.615L367.692 35.3846C367.692 35.3846 367.692 35.3846 367.692 33.8462C364.615 29.2308 356.923 29.2308 353.846 33.8462V35.3846L43.0767 569.231C43.0767 570.769 41.5382 570.769 41.5382 572.308H7.69231C3.07692 572.308 0 575.385 0 580C0 584.615 3.07692 587.692 7.69231 587.692H992.308C996.923 587.692 1000 584.615 1000 580C1000 575.385 996.923 570.769 992.308 570.769ZM640 121.538C640 63.0769 687.692 15.3846 746.154 15.3846C804.615 15.3846 852.308 63.0769 852.308 121.538C852.308 176.923 810.769 221.538 755.384 227.692L692.308 120C692.308 120 692.308 120 692.308 118.462C689.231 113.846 681.538 113.846 678.461 118.462V120L650.769 167.692C644.615 153.846 640 138.462 640 121.538ZM589.231 306.154H590.769H620C624.615 306.154 627.692 303.077 627.692 298.462C627.692 293.846 624.615 290.769 620 290.769H596.923L607.692 272.308H609.23H658.461C663.077 272.308 666.154 269.231 666.154 264.615C666.154 260 663.077 256.923 658.461 256.923H616.923L687.692 136.923L940 570.769H680C680 569.231 680 569.231 678.461 567.692L556.923 360L589.231 306.154ZM89.2306 520H227.692C232.307 520 235.384 516.923 235.384 512.308C235.384 507.692 232.307 504.615 227.692 504.615H98.4614L110.769 483.077H180C184.615 483.077 187.692 480 187.692 475.385C187.692 470.769 184.615 467.692 180 467.692H120L360 53.8462L661.538 572.308H58.4613L89.2306 520Z" fill="white"/>
<path d="M296.923 504.615H263.076C258.461 504.615 255.384 507.692 255.384 512.308C255.384 516.923 258.461 520 263.076 520H296.923C301.538 520 304.615 516.923 304.615 512.308C304.615 507.692 301.538 504.615 296.923 504.615Z" fill="white"/>
</svg>
