<svg width="1000" height="952" viewBox="0 0 1000 952" fill="none" xmlns="http://www.w3.org/2000/svg">
<path d="M993.61 1.19808C992.013 -0.399361 988.818 -0.399361 985.623 1.19808L661.342 140.176L337.061 1.19808H335.463H333.866H332.268H330.671L4.79238 140.176C1.59749 141.773 0 144.968 0 146.565V943.69C0 946.885 1.5974 948.482 3.19484 950.08C4.79228 951.677 6.38978 951.677 7.98722 951.677C9.58466 951.677 9.58461 951.677 11.1821 951.677L335.463 814.297L659.744 951.677C661.342 951.677 661.342 951.677 662.939 951.677C662.939 951.677 662.939 951.677 664.537 951.677C664.537 951.677 664.537 951.677 666.134 951.677C667.732 951.677 667.731 951.677 669.329 951.677L995.207 812.7C998.402 811.102 1000 807.907 1000 806.31V7.58786C998.403 4.39297 996.805 2.79553 993.61 1.19808ZM653.354 932.508L341.853 799.92V767.971C341.853 763.179 338.658 759.984 333.866 759.984C329.073 759.984 325.878 763.179 325.878 767.971V799.92L15.9744 932.508V151.358L327.476 18.77V140.176C327.476 144.968 330.671 148.163 335.463 148.163C340.256 148.163 343.45 144.968 343.45 140.176V18.77L654.952 151.358V932.508H653.354ZM982.428 799.92L670.926 932.508V151.358L982.428 18.77V799.92Z" fill="white"/>
<path d="M335.463 680.112C330.671 680.112 327.476 683.307 327.476 688.099V745.607C327.476 750.399 330.671 753.594 335.463 753.594C340.256 753.594 343.451 750.399 343.451 745.607V688.099C343.451 683.307 338.658 680.112 335.463 680.112Z" fill="white"/>
<path d="M246.006 336.662C246.006 384.585 285.943 422.923 335.463 422.923C384.984 422.923 424.92 384.585 424.92 336.662C424.92 288.738 384.984 250.4 335.463 250.4C285.943 250.4 246.006 290.336 246.006 336.662ZM407.348 336.662C407.348 375 373.802 406.949 333.866 406.949C293.93 406.949 260.383 375 260.383 336.662C260.383 298.323 293.93 266.374 333.866 266.374C375.399 266.374 407.348 298.323 407.348 336.662Z" fill="white"/>
<path d="M148.562 336.661C148.562 432.508 321.086 652.955 327.476 662.54C329.074 664.137 330.671 665.735 333.866 665.735C337.061 665.735 338.658 664.137 340.256 662.54C348.243 652.955 519.169 434.105 519.169 336.661C519.169 237.62 436.102 157.747 333.866 157.747C231.629 157.747 148.562 237.62 148.562 336.661ZM504.793 336.661C504.793 418.131 365.815 603.434 333.866 644.968C303.514 605.032 162.94 418.131 162.94 336.661C162.94 245.607 239.617 172.124 333.866 172.124C428.115 173.722 504.793 247.204 504.793 336.661Z" fill="white"/>
</svg>
