<svg width="1000" height="1000" viewBox="0 0 1000 1000" fill="none" xmlns="http://www.w3.org/2000/svg">
<path d="M562.662 83.4827C559.474 80.2948 554.692 80.2948 551.504 83.4827L449.492 185.495L446.304 188.683C446.304 188.683 444.71 190.277 444.71 191.871L380.952 338.514C379.358 341.701 380.952 344.889 382.546 348.077L404.861 370.392L11.1578 764.096C3.18808 772.066 0 781.63 0 791.193C0 800.757 4.78202 811.915 11.1578 818.29L181.709 988.842C189.679 996.812 199.243 1000 208.807 1000C218.37 1000 229.528 996.812 235.904 988.842L629.607 595.138L651.923 617.454C653.517 619.048 655.111 619.048 658.299 619.048C659.893 619.048 659.892 619.048 661.486 619.048L811.317 553.696C812.911 553.696 812.911 552.102 814.505 552.102L918.111 448.496C921.299 445.308 921.299 440.526 918.111 437.338L562.662 83.4827ZM226.34 979.279C216.776 988.842 202.431 988.842 192.867 979.279L22.3151 808.727C17.5333 803.945 15.9394 799.163 15.9394 792.788C15.9394 786.412 19.1272 780.036 22.3151 776.848L416.019 383.144L620.044 587.169L226.34 979.279ZM809.723 536.163L782.626 509.066C779.438 505.878 774.656 505.878 771.468 509.066C768.28 512.253 768.28 517.035 771.468 520.223L796.972 545.726L661.486 604.702L637.577 580.793L422.395 365.611L398.486 341.702L457.462 206.216L734.808 483.562L718.868 499.502C715.681 502.69 715.681 507.472 718.868 510.659C720.462 512.253 722.056 512.253 725.244 512.253C728.432 512.253 730.026 512.253 731.62 510.659L752.341 489.938C753.935 488.344 753.935 486.75 753.935 483.562C753.935 481.968 752.341 478.781 752.341 477.187L468.619 193.465L559.474 102.61L903.766 446.902L809.723 536.163Z" fill="white"/>
<path d="M315.601 619.048C312.413 622.236 312.413 627.017 315.601 630.205L369.795 684.399C371.389 685.993 372.983 685.993 376.171 685.993C379.359 685.993 380.953 684.399 382.547 684.399L484.559 582.387C487.747 579.199 487.747 574.417 484.559 571.229L430.365 517.035C428.771 515.442 427.177 515.441 423.989 515.441C420.801 515.441 419.208 517.035 417.614 517.035L315.601 619.048ZM467.026 577.605L376.171 668.46L333.134 625.423L423.989 534.569L467.026 577.605Z" fill="white"/>
<path d="M836.82 172.743C838.414 172.743 841.602 172.743 843.196 171.15L951.584 62.7615C954.772 59.5736 954.772 54.7917 951.584 51.6038C948.396 48.4159 943.614 48.4159 940.427 51.6038L832.039 159.992C828.851 163.18 828.851 167.962 832.039 171.15C832.039 171.15 835.226 172.743 836.82 172.743Z" fill="white"/>
<path d="M737.995 112.174C739.589 112.174 739.589 112.174 741.183 112.174C744.371 112.174 747.559 110.58 749.153 107.392L789.001 11.7553C790.595 6.97346 789.002 3.78563 784.22 0.59774C779.438 -0.996203 776.25 0.597667 773.062 5.3795L733.213 101.016C733.213 105.798 734.808 110.58 737.995 112.174Z" fill="white"/>
<path d="M999.402 217.374C997.808 212.592 993.026 210.998 988.244 212.592L892.608 252.44C887.826 254.034 886.232 258.816 887.826 263.598C889.42 266.786 892.608 268.38 895.796 268.38C897.39 268.38 897.39 268.38 898.984 268.38L994.62 228.531C999.402 225.343 1001 220.562 999.402 217.374Z" fill="white"/>
</svg>
