<svg width="1000" height="995" viewBox="0 0 1000 995" fill="none" xmlns="http://www.w3.org/2000/svg">
<path d="M396.549 319.704C393.412 316.567 388.707 316.567 385.571 319.704C382.434 322.84 382.434 327.545 385.571 330.682L660.015 605.126C661.583 606.694 663.152 606.694 666.288 606.694C669.425 606.694 670.993 606.694 672.561 605.126C675.698 601.99 675.698 597.285 672.561 594.148L396.549 319.704Z" fill="white"/>
<path d="M363.615 352.637C362.047 351.069 327.545 314.999 349.501 271.088C351.069 267.952 349.501 263.247 346.364 260.11C343.228 258.542 338.523 260.11 335.386 263.247C307.158 318.136 351.069 362.047 352.637 363.615L627.082 638.06C628.65 639.628 630.218 639.628 633.355 639.628C636.491 639.628 638.06 639.628 639.628 638.06C642.764 634.923 642.764 630.218 639.628 627.082L363.615 352.637Z" fill="white"/>
<path d="M330.682 384.003C327.546 380.866 322.841 380.866 319.704 384.003C316.568 387.139 316.568 391.844 319.704 394.981L594.149 669.425C595.717 670.993 597.286 670.993 600.422 670.993C603.559 670.993 605.127 670.993 606.695 669.425C609.832 666.289 609.832 661.584 606.695 658.447L330.682 384.003Z" fill="white"/>
<path d="M561.215 680.402L559.647 678.834L297.748 416.935C294.612 413.799 289.907 413.799 286.771 416.935C283.634 420.072 283.634 424.777 286.771 427.913L297.748 438.891L114.263 531.418C49.9644 573.761 9.18959 641.196 1.34831 716.472C-6.49296 791.748 20.1675 867.025 73.4881 920.345C120.536 967.393 184.834 994.053 252.269 994.053C261.679 994.053 269.52 994.053 278.93 992.485C354.206 984.644 423.209 943.869 465.552 879.571L558.079 696.085L562.783 700.789C564.352 702.358 565.92 702.358 569.057 702.358C572.193 702.358 573.761 702.358 575.33 700.789C578.466 697.653 578.466 692.948 575.33 689.812L561.215 680.402ZM369.888 511.031L198.948 636.491C169.152 655.31 150.332 686.675 147.196 721.177C144.059 755.678 155.037 790.18 180.129 815.272C202.085 837.228 231.882 849.774 261.679 849.774C266.383 849.774 269.52 849.774 274.225 849.774C308.726 846.637 340.091 827.818 358.91 798.021L485.939 627.082L509.463 650.605L391.844 840.364C363.615 882.707 318.136 910.936 266.383 915.64C214.631 920.345 164.447 903.094 128.377 867.024C92.3072 830.955 73.488 780.77 79.761 729.018C84.4658 677.266 112.694 631.786 155.037 605.126L346.364 487.507L369.888 511.031ZM474.961 616.104L346.364 790.18C329.114 815.272 302.453 830.955 272.656 834.091C242.859 837.228 213.063 826.25 191.107 805.863C169.152 785.475 159.742 755.678 162.878 724.313C166.015 694.517 181.698 667.856 208.358 650.605L382.434 523.577L474.961 616.104ZM451.438 873.298C412.231 932.891 349.501 972.098 277.361 978.371C206.79 986.212 136.218 961.12 86.034 910.936C35.8498 860.751 10.7579 790.18 18.5992 719.609C26.4405 649.037 64.0783 584.739 123.672 545.532L311.863 451.437L336.955 476.529L150.333 592.58C103.285 623.945 73.4882 672.561 67.2152 729.018C60.9422 785.475 81.3294 838.796 120.536 879.571C155.037 914.072 202.085 934.459 252.269 934.459C258.542 934.459 264.815 934.459 271.088 932.891C327.545 926.618 376.161 896.821 407.526 849.774L523.577 663.151L548.669 688.243L451.438 873.298Z" fill="white"/>
<path d="M923.481 73.488C870.161 20.1673 794.885 -6.49296 719.608 1.34832C644.332 9.18959 575.329 49.9642 532.986 114.263L440.459 297.748L429.481 286.771C426.345 283.634 421.64 283.634 418.504 286.771C415.367 289.907 415.367 294.612 418.504 297.748L692.948 572.193C694.517 573.761 696.085 573.761 699.221 573.761C702.358 573.761 703.926 573.761 705.494 572.193C708.631 569.056 708.631 564.352 705.494 561.215L700.79 556.51L885.843 463.983C950.142 421.641 990.917 354.206 998.758 278.929C1006.6 203.653 976.802 128.377 923.481 73.488ZM627.081 484.371L798.021 357.342C827.818 338.523 846.637 307.158 849.774 272.656C852.91 238.155 841.932 203.653 816.84 178.561C791.748 153.469 757.247 140.923 722.745 145.628C688.243 148.764 656.878 167.583 638.059 197.38L511.031 369.888L487.507 346.364L605.126 156.606C633.355 114.263 678.834 86.034 730.586 81.3293C782.339 76.6245 832.523 93.8753 868.593 129.945C904.662 166.015 923.482 216.199 917.209 267.952C912.504 319.704 884.275 365.183 841.933 391.844L652.174 509.463L627.081 484.371ZM523.577 380.866L652.174 206.79C669.424 181.698 696.085 166.015 725.882 162.879C755.679 159.742 785.475 170.72 807.431 191.107C829.386 213.063 838.796 241.291 835.66 272.656C832.523 304.021 816.84 329.114 790.18 346.364L616.104 474.961L523.577 380.866ZM979.939 275.793C972.097 346.364 934.46 410.663 874.866 449.869L686.675 545.533L661.583 520.441L848.205 404.39C895.253 373.025 925.05 324.409 931.323 267.952C937.596 211.494 917.209 158.174 878.002 117.399C838.796 78.1928 783.907 57.8055 727.45 64.0785C670.992 70.3515 622.377 100.148 591.012 147.196L474.961 333.818L449.869 308.726L543.964 122.104C583.17 62.5102 647.469 23.3039 718.04 17.0309C788.612 9.18959 859.183 34.2817 909.367 84.4659C962.688 134.65 987.78 205.221 979.939 275.793Z" fill="white"/>
</svg>
